<?xml version="1.0" encoding="UTF-8" standalone="no"?>
<svg
   xmlns:dc="http://purl.org/dc/elements/1.1/"
   xmlns:cc="http://creativecommons.org/ns#"
   xmlns:rdf="http://www.w3.org/1999/02/22-rdf-syntax-ns#"
   xmlns:svg="http://www.w3.org/2000/svg"
   xmlns="http://www.w3.org/2000/svg"
   xmlns:sodipodi="http://sodipodi.sourceforge.net/DTD/sodipodi-0.dtd"
   xmlns:inkscape="http://www.inkscape.org/namespaces/inkscape"
   width="100%"
   height="100%"
   viewBox="0 0 11 11"
   id="jh_logo"
   shape-rendering="crispEdges"
   version="1.1"
   sodipodi:docname="index.svg"
   inkscape:version="0.92.2 (5c3e80d, 2017-08-06)">
  <metadata
     id="metadata14">
    <rdf:RDF>
      <cc:Work
         rdf:about="">
        <dc:format>image/svg+xml</dc:format>
        <dc:type
           rdf:resource="http://purl.org/dc/dcmitype/StillImage" />
        <dc:title />
      </cc:Work>
    </rdf:RDF>
  </metadata>
  <defs
     id="defs12" />
  <sodipodi:namedview
     pagecolor="#ffffff"
     bordercolor="#666666"
     borderopacity="1"
     objecttolerance="10"
     gridtolerance="10"
     guidetolerance="10"
     inkscape:pageopacity="0"
     inkscape:pageshadow="2"
     inkscape:window-width="1366"
     inkscape:window-height="664"
     id="namedview10"
     showgrid="false"
     inkscape:zoom="30.341309"
     inkscape:cx="2.8642375"
     inkscape:cy="3.4667351"
     inkscape:window-x="-8"
     inkscape:window-y="-8"
     inkscape:window-maximized="1"
     inkscape:current-layer="jh_logo" />
  <path
     style="fill:#000000;fill-opacity:1"
     d="M 4 7 L 4 9 L 7 9 L 7 7 L 6 7 L 6 8 L 5 8 L 5 7 L 4 7 z "
     id="path4537" />
  <path
     style="fill:#000000;fill-opacity:1"
     d="M 8 6 L 8 7 L 9 7 L 9 6 L 8 6 z "
     id="path4546" />
  <path
     style="fill:#000000;fill-opacity:1"
     d="M 2 6 L 2 7 L 3 7 L 3 6 L 2 6 z "
     id="path4544" />
  <path
     style="fill:#ea680e;fill-opacity:1"
     d="M 1 0 L 1 1 L 0 1 L 0 5 L 0 9 L 1 9 L 1 10 L 2 10 L 2 11 L 9 11 L 9 10 L 10 10 L 10 9 L 11 9 L 11 5 L 11 1 L 10 1 L 10 0 L 8 0 L 8 1 L 7 1 L 7 2 L 4 2 L 4 1 L 3 1 L 3 0 L 1 0 z M 2 4 L 9 4 L 9 5 L 10 5 L 10 8 L 9 8 L 9 9 L 8 9 L 8 10 L 3 10 L 3 9 L 2 9 L 2 8 L 1 8 L 1 5 L 2 5 L 2 4 z M 1.6777344 5.640625 L 9.4160156 5.640625 L 1.6777344 5.640625 z "
     id="left_eye" />
  <g
     id="head" />
</svg>
